REM DIRINDEX 1\2\5,1\2\6,1\2\7,1\2\8,1\3\9,1\3\10,1\3\11,1\4\12,1\4\13,1\4\14,1\4\15,1\4\16
REM DIRNAME folder01,folder02,folder03,folder04,folder05,folder06,folder07,folder08,folder09,folder10,folder11,folder12,folder13,folder14,folder15,folder16
TITLE ""
FILE "1200_2_sec03_1121_1141.mp3" MP3
  TRACK 01 AUDIO
    TITLE "0:"
    INDEX 01 00:00:00
  TRACK 02 AUDIO
    TITLE "11:cjc034_02312"
    INDEX 01 00:00:15
  TRACK 03 AUDIO
    TITLE "0:"
    INDEX 01 00:01:42
  TRACK 04 AUDIO
    TITLE "11:cjc034_02313"
    INDEX 01 00:02:16
  TRACK 05 AUDIO
    TITLE "0:"
    INDEX 01 00:04:54
  TRACK 06 AUDIO
    TITLE "10:cjc034_02314"
    INDEX 01 00:05:44
  TRACK 07 AUDIO
    TITLE "0:"
    INDEX 01 00:07:70
  TRACK 08 AUDIO
    TITLE "9:cjc034_02315"
    INDEX 01 00:07:72
  TRACK 09 AUDIO
    TITLE "0:"
    INDEX 01 00:09:32
  TRACK 10 AUDIO
    TITLE "10:cjc034_02316"
    INDEX 01 00:10:14
  TRACK 11 AUDIO
    TITLE "0:"
    INDEX 01 00:13:57
  TRACK 12 AUDIO
    TITLE "9:cjc034_02317"
    INDEX 01 00:13:61
  TRACK 13 AUDIO
    TITLE "0:"
    INDEX 01 00:15:23
  TRACK 14 AUDIO
    TITLE "10:cjc034_02318"
    INDEX 01 00:16:06
  TRACK 15 AUDIO
    TITLE "0:"
    INDEX 01 00:18:41
  TRACK 16 AUDIO
    TITLE "9:cjc034_02319"
    INDEX 01 00:18:44
  TRACK 17 AUDIO
    TITLE "0:"
    INDEX 01 00:21:64
  TRACK 18 AUDIO
    TITLE "10:cjc034_02320"
    INDEX 01 00:22:50
  TRACK 19 AUDIO
    TITLE "0:"
    INDEX 01 00:24:71
  TRACK 20 AUDIO
    TITLE "9:cjc034_02321"
    INDEX 01 00:24:74
  TRACK 21 AUDIO
    TITLE "0:"
    INDEX 01 00:26:17
  TRACK 22 AUDIO
    TITLE "10:cjc034_02322"
    INDEX 01 00:26:73
  TRACK 23 AUDIO
    TITLE "0:"
    INDEX 01 00:28:72
  TRACK 24 AUDIO
    TITLE "9:cjc034_02323"
    INDEX 01 00:29:03
  TRACK 25 AUDIO
    TITLE "0:"
    INDEX 01 00:32:03
  TRACK 26 AUDIO
    TITLE "10:cjc034_02324"
    INDEX 01 00:32:62
  TRACK 27 AUDIO
    TITLE "0:"
    INDEX 01 00:34:08
  TRACK 28 AUDIO
    TITLE "9:cjc034_02325"
    INDEX 01 00:34:14
  TRACK 29 AUDIO
    TITLE "0:"
    INDEX 01 00:35:35
  TRACK 30 AUDIO
    TITLE "10:cjc034_02326"
    INDEX 01 00:36:19
  TRACK 31 AUDIO
    TITLE "0:"
    INDEX 01 00:37:65
  TRACK 32 AUDIO
    TITLE "9:cjc034_02327"
    INDEX 01 00:37:67
  TRACK 33 AUDIO
    TITLE "0:"
    INDEX 01 00:40:50
  TRACK 34 AUDIO
    TITLE "10:cjc034_02328"
    INDEX 01 00:41:36
  TRACK 35 AUDIO
    TITLE "0:"
    INDEX 01 00:43:03
  TRACK 36 AUDIO
    TITLE "9:cjc034_02329"
    INDEX 01 00:43:05
  TRACK 37 AUDIO
    TITLE "0:"
    INDEX 01 00:44:38
  TRACK 38 AUDIO
    TITLE "10:cjc034_02330"
    INDEX 01 00:45:20
  TRACK 39 AUDIO
    TITLE "0:"
    INDEX 01 00:48:08
  TRACK 40 AUDIO
    TITLE "9:cjc034_02331"
    INDEX 01 00:48:10
  TRACK 41 AUDIO
    TITLE "0:"
    INDEX 01 00:50:66
  TRACK 42 AUDIO
    TITLE "10:cjc034_02332"
    INDEX 01 00:51:48
  TRACK 43 AUDIO
    TITLE "0:"
    INDEX 01 00:53:23
  TRACK 44 AUDIO
    TITLE "9:cjc034_02333"
    INDEX 01 00:53:29
  TRACK 45 AUDIO
    TITLE "0:"
    INDEX 01 00:59:43
  TRACK 46 AUDIO
    TITLE "10:cjc034_02334"
    INDEX 01 01:00:23
  TRACK 47 AUDIO
    TITLE "0:"
    INDEX 01 01:01:48
  TRACK 48 AUDIO
    TITLE "9:cjc034_02335"
    INDEX 01 01:01:54
  TRACK 49 AUDIO
    TITLE "0:"
    INDEX 01 01:03:04
  TRACK 50 AUDIO
    TITLE "10:cjc034_02336"
    INDEX 01 01:03:57
  TRACK 51 AUDIO
    TITLE "0:"
    INDEX 01 01:06:42
  TRACK 52 AUDIO
    TITLE "9:cjc034_02337"
    INDEX 01 01:06:47
  TRACK 53 AUDIO
    TITLE "0:"
    INDEX 01 01:10:41
  TRACK 54 AUDIO
    TITLE "10:cjc034_02338"
    INDEX 01 01:11:23
  TRACK 55 AUDIO
    TITLE "0:"
    INDEX 01 01:14:02
  TRACK 56 AUDIO
    TITLE "9:cjc034_02339"
    INDEX 01 01:14:10
  TRACK 57 AUDIO
    TITLE "0:"
    INDEX 01 01:15:29
  TRACK 58 AUDIO
    TITLE "10:cjc034_02340"
    INDEX 01 01:16:09
  TRACK 59 AUDIO
    TITLE "0:"
    INDEX 01 01:17:49
  TRACK 60 AUDIO
    TITLE "9:cjc034_02341"
    INDEX 01 01:17:51
  TRACK 61 AUDIO
    TITLE "0:"
    INDEX 01 01:19:11
  TRACK 62 AUDIO
    TITLE "10:cjc034_02342"
    INDEX 01 01:19:70
  TRACK 63 AUDIO
    TITLE "0:"
    INDEX 01 01:23:50
  TRACK 64 AUDIO
    TITLE "9:cjc034_02343"
    INDEX 01 01:23:58
  TRACK 65 AUDIO
    TITLE "0:"
    INDEX 01 01:26:29
  TRACK 66 AUDIO
    TITLE "10:cjc034_02344"
    INDEX 01 01:27:12
  TRACK 67 AUDIO
    TITLE "0:"
    INDEX 01 01:28:33
  TRACK 68 AUDIO
    TITLE "9:cjc034_02345"
    INDEX 01 01:28:35
  TRACK 69 AUDIO
    TITLE "0:"
    INDEX 01 01:29:45
  TRACK 70 AUDIO
    TITLE "10:cjc034_02346"
    INDEX 01 01:30:30
  TRACK 71 AUDIO
    TITLE "0:"
    INDEX 01 01:33:38
  TRACK 72 AUDIO
    TITLE "9:cjc034_02347"
    INDEX 01 01:33:44
  TRACK 73 AUDIO
    TITLE "0:"
    INDEX 01 01:34:65
  TRACK 74 AUDIO
    TITLE "10:cjc034_02348"
    INDEX 01 01:35:47
  TRACK 75 AUDIO
    TITLE "0:"
    INDEX 01 01:37:40
  TRACK 76 AUDIO
    TITLE "9:cjc034_02349"
    INDEX 01 01:37:46
  TRACK 77 AUDIO
    TITLE "0:"
    INDEX 01 01:39:47
  TRACK 78 AUDIO
    TITLE "10:cjc034_02350"
    INDEX 01 01:40:27
  TRACK 79 AUDIO
    TITLE "0:"
    INDEX 01 01:42:30
  TRACK 80 AUDIO
    TITLE "9:cjc034_02351"
    INDEX 01 01:42:33
  TRACK 81 AUDIO
    TITLE "0:"
    INDEX 01 01:44:17
  TRACK 82 AUDIO
    TITLE "10:cjc034_02352"
    INDEX 01 01:45:04
  TRACK 83 AUDIO
    TITLE "0:"
    INDEX 01 01:47:29
  TRACK 84 AUDIO
    TITLE "9:cjc034_02353"
    INDEX 01 01:47:35
  TRACK 85 AUDIO
    TITLE "0:"
    INDEX 01 01:50:66
  TRACK 86 AUDIO
    TITLE "10:cjc034_02354"
    INDEX 01 01:51:50
  TRACK 87 AUDIO
    TITLE "0:"
    INDEX 01 01:53:02
  TRACK 88 AUDIO
    TITLE "9:cjc034_02355"
    INDEX 01 01:53:10
  TRACK 89 AUDIO
    TITLE "0:"
    INDEX 01 01:54:41
